<?xml version="1.0" encoding="UTF-8"?>
<svg version="1.1" xmlns="http://www.w3.org/2000/svg" width="494" height="505">
<path d="M0 0 C3.01539746 2.06115776 5.60102691 4.24508171 8 7 C8.62318517 7.70052034 8.62318517 7.70052034 9.25895995 8.4151926 C14.34708842 15.13297794 13.699343 22.62617019 13.63923645 30.65405273 C13.64555199 32.2572647 13.65405723 33.86046927 13.66455668 35.46365929 C13.68702569 39.85816358 13.67851108 44.25214162 13.6648711 48.646662 C13.65560062 53.38962475 13.67515751 58.13247951 13.69119263 62.87541199 C13.71502635 71.08920235 13.72064292 79.30284267 13.71384621 87.5166626 C13.70404575 99.39239682 13.72178163 111.26796469 13.74621352 123.14367199 C13.78510694 142.41170297 13.80176629 161.67968637 13.80444336 180.94775391 C13.80709132 199.66359904 13.82021062 218.37938859 13.84741211 237.09521484 C13.84908549 238.24908034 13.85075887 239.40294585 13.85248295 240.59177697 C13.86094249 246.38044773 13.86960789 252.16911816 13.87837565 257.95778847 C13.9508334 305.97184909 13.98720742 353.98588895 14 402 C14.62455078 401.20795166 15.24910156 400.41590332 15.89257812 399.59985352 C17.67673908 397.39879583 19.32830529 395.72343315 21.5 393.9375 C26.82542715 389.39140365 31.68660085 384.39481549 36.60107422 379.41503906 C38.72451022 377.26714463 40.86248699 375.13387159 43 373 C43.825 372.175 44.65 371.35 45.5 370.5 C66 350 66 350 68.375 347.6875 C70.46020887 345.5526433 72.38338831 343.39531511 74.3125 341.125 C77.34874181 337.61248496 80.6175293 334.59588722 84.1484375 331.58984375 C87.41958749 328.7810715 90.34787018 325.83554134 93 322.4375 C95.11878607 319.85522947 97.37202922 318.05109914 100 316 C103.03045221 313.12904527 105.78657664 310.10316059 108.5 306.9375 C111.12287557 303.9058646 113.80596039 301.43755654 117 299 C119.79569572 296.34767329 122.32545546 293.61059617 124.75 290.625 C129.90228321 284.54557071 137.97979647 277.13464104 146.0246582 275.6184082 C148.17831472 275.46466517 150.2792339 275.44495697 152.4375 275.5 C153.18741211 275.51063477 153.93732422 275.52126953 154.70996094 275.53222656 C160.43384152 275.7294296 164.21943694 276.69037942 169 280 C169.86625 280.556875 170.7325 281.11375 171.625 281.6875 C178.48585552 288.36780669 181.0933358 294.71729977 181.3125 304.1875 C181.29082502 310.53104503 179.84430232 315.37488425 177 321 C176.34 321 175.68 321 175 321 C174.7525 321.61875 174.505 322.2375 174.25 322.875 C172.76259631 325.40358627 171.56321991 325.71839004 169 327 C168.31513275 328.32407669 167.65129797 329.65909241 167 331 C162.84951456 335.58737864 162.84951456 335.58737864 159.8125 337.0625 C157.82107843 337.86702161 157.82107843 337.86702161 157 340 C155.73577236 342.52845528 154.47154472 342.76422764 152 344 C151.7009375 344.60328125 151.401875 345.2065625 151.09375 345.828125 C149.86390257 348.27025061 148.43702936 349.82938615 146.5 351.75 C145.8915625 352.36359375 145.283125 352.9771875 144.65625 353.609375 C143 355 143 355 141 355 C140.731875 355.639375 140.46375 356.27875 140.1875 356.9375 C139 359 139 359 136 360 C135.30199696 361.31719929 134.63940252 362.65337955 134 364 C132.34375 365.921875 132.34375 365.921875 130.5 367.75 C129.8915625 368.36359375 129.283125 368.9771875 128.65625 369.609375 C127 371 127 371 125 371 C124.7525 371.61875 124.505 372.2375 124.25 372.875 C122.76259631 375.40358627 121.56321991 375.71839004 119 377 C118.31513275 378.32407669 117.65129797 379.65909241 117 381 C112.84951456 385.58737864 112.84951456 385.58737864 109.8125 387.0625 C107.82107843 387.86702161 107.82107843 387.86702161 107 390 C105.73577236 392.52845528 104.47154472 392.76422764 102 394 C101.7009375 394.60328125 101.401875 395.2065625 101.09375 395.828125 C99.86390257 398.27025061 98.43702936 399.82938615 96.5 401.75 C95.8915625 402.36359375 95.283125 402.9771875 94.65625 403.609375 C93 405 93 405 91 405 C90.731875 405.639375 90.46375 406.27875 90.1875 406.9375 C89 409 89 409 86 410 C85.30199696 411.31719929 84.63940252 412.65337955 84 414 C82.34375 415.921875 82.34375 415.921875 80.5 417.75 C79.8915625 418.36359375 79.283125 418.9771875 78.65625 419.609375 C77 421 77 421 75 421 C74.7525 421.61875 74.505 422.2375 74.25 422.875 C72.76259631 425.40358627 71.56321991 425.71839004 69 427 C68.31513275 428.32407669 67.65129797 429.65909241 67 431 C62.84951456 435.58737864 62.84951456 435.58737864 59.8125 437.0625 C57.82107843 437.86702161 57.82107843 437.86702161 57 440 C55.73577236 442.52845528 54.47154472 442.76422764 52 444 C51.7009375 444.60328125 51.401875 445.2065625 51.09375 445.828125 C49.86390257 448.27025061 48.43702936 449.82938615 46.5 451.75 C45.8915625 452.36359375 45.283125 452.9771875 44.65625 453.609375 C43 455 43 455 41 455 C40.731875 455.639375 40.46375 456.27875 40.1875 456.9375 C39 459 39 459 36 460 C35.30199696 461.31719929 34.63940252 462.65337955 34 464 C32.34375 465.921875 32.34375 465.921875 30.5 467.75 C29.8915625 468.36359375 29.283125 468.9771875 28.65625 469.609375 C27 471 27 471 25 471 C24.7525 471.61875 24.505 472.2375 24.25 472.875 C22.76259631 475.40358627 21.56321991 475.71839004 19 477 C18.31513275 478.32407669 17.65129797 479.65909241 17 481 C15.38161281 482.71358643 13.70328319 484.3707726 12 486 C11.39800781 486.63421875 10.79601562 487.2684375 10.17578125 487.921875 C3.717447 494.67203967 -2.07278409 499.46156169 -11.61328125 500.203125 C-21.74359714 500.37904944 -28.82727346 497.7722024 -36.37109375 490.8125 C-40.97672138 486.3290185 -40.97672138 486.3290185 -43 484 C-43 483.34 -43 482.68 -43 482 C-43.84933105 481.63745117 -43.84933105 481.63745117 -44.71582031 481.26757812 C-47.4522274 479.74904183 -49.33069338 477.92848119 -51.546875 475.71875 C-52.39121094 474.87699219 -53.23554688 474.03523438 -54.10546875 473.16796875 C-54.97816406 472.28753906 -55.85085937 471.40710938 -56.75 470.5 C-57.63816406 469.61957031 -58.52632812 468.73914063 -59.44140625 467.83203125 C-60.28058594 466.99027344 -61.11976563 466.14851563 -61.984375 465.28125 C-62.75491211 464.50845703 -63.52544922 463.73566406 -64.31933594 462.93945312 C-66 461 -66 461 -66 459 C-67.32 458.34 -68.64 457.68 -70 457 C-70 456.34 -70 455.68 -70 455 C-70.84933105 454.63745117 -70.84933105 454.63745117 -71.71582031 454.26757812 C-74.4522274 452.74904183 -76.33069338 450.92848119 -78.546875 448.71875 C-79.39121094 447.87699219 -80.23554688 447.03523438 -81.10546875 446.16796875 C-81.97816406 445.28753906 -82.85085937 444.40710938 -83.75 443.5 C-84.63816406 442.61957031 -85.52632813 441.73914063 -86.44140625 440.83203125 C-87.28058594 439.99027344 -88.11976563 439.14851563 -88.984375 438.28125 C-89.75491211 437.50845703 -90.52544922 436.73566406 -91.31933594 435.93945312 C-93 434 -93 434 -93 432 C-93.84933105 431.63745117 -93.84933105 431.63745117 -94.71582031 431.26757812 C-97.4522274 429.74904183 -99.33069338 427.92848119 -101.546875 425.71875 C-102.39121094 424.87699219 -103.23554688 424.03523438 -104.10546875 423.16796875 C-104.97816406 422.28753906 -105.85085937 421.40710938 -106.75 420.5 C-107.63816406 419.61957031 -108.52632813 418.73914063 -109.44140625 417.83203125 C-110.28058594 416.99027344 -111.11976563 416.14851563 -111.984375 415.28125 C-112.75491211 414.50845703 -113.52544922 413.73566406 -114.31933594 412.93945312 C-116 411 -116 411 -116 409 C-117.32 408.34 -118.64 407.68 -120 407 C-120 406.34 -120 405.68 -120 405 C-120.84933105 404.63745117 -120.84933105 404.63745117 -121.71582031 404.26757812 C-124.4522274 402.74904183 -126.33069338 400.92848119 -128.546875 398.71875 C-129.39121094 397.87699219 -130.23554688 397.03523438 -131.10546875 396.16796875 C-131.97816406 395.28753906 -132.85085937 394.40710938 -133.75 393.5 C-134.63816406 392.61957031 -135.52632813 391.73914063 -136.44140625 390.83203125 C-137.28058594 389.99027344 -138.11976563 389.14851563 -138.984375 388.28125 C-139.75491211 387.50845703 -140.52544922 386.73566406 -141.31933594 385.93945312 C-143 384 -143 384 -143 382 C-143.84933105 381.63745117 -143.84933105 381.63745117 -144.71582031 381.26757812 C-147.4522274 379.74904183 -149.33069338 377.92848119 -151.546875 375.71875 C-152.39121094 374.87699219 -153.23554688 374.03523438 -154.10546875 373.16796875 C-154.97816406 372.28753906 -155.85085937 371.40710938 -156.75 370.5 C-157.63816406 369.61957031 -158.52632812 368.73914063 -159.44140625 367.83203125 C-160.28058594 366.99027344 -161.11976563 366.14851563 -161.984375 365.28125 C-162.75491211 364.50845703 -163.52544922 363.73566406 -164.31933594 362.93945312 C-166 361 -166 361 -166 359 C-166.54817383 358.77634766 -167.09634766 358.55269531 -167.66113281 358.32226562 C-170.70245719 356.60286971 -172.98233621 354.30376001 -175.421875 351.84375 C-175.92672424 351.34081421 -176.43157349 350.83787842 -176.95172119 350.31970215 C-178.01307997 349.25970014 -179.07193419 348.19718512 -180.12841797 347.13232422 C-181.75139124 345.49859954 -183.38481068 343.87586706 -185.01953125 342.25390625 C-186.05012146 341.22199524 -187.08009152 340.18946441 -188.109375 339.15625 C-188.59992371 338.66974976 -189.09047241 338.18324951 -189.59588623 337.68200684 C-193 334.22994349 -193 334.22994349 -193 332 C-193.5775 331.74605469 -194.155 331.49210937 -194.75 331.23046875 C-201.50673896 327.53537713 -207.18879196 320.5308702 -209.58203125 313.22265625 C-211.47760105 303.14247668 -210.21221356 295.11662349 -204.9375 286.5625 C-204.298125 285.716875 -203.65875 284.87125 -203 284 C-202.34 284 -201.68 284 -201 284 C-201 283.34 -201 282.68 -201 282 C-199.54195831 281.18697675 -198.08355685 280.37459869 -196.625 279.5625 C-195.81289062 279.11003906 -195.00078125 278.65757812 -194.1640625 278.19140625 C-190.04523784 275.92382227 -186.65034999 275.67855865 -182 275.5625 C-180.92298828 275.49385742 -180.92298828 275.49385742 -179.82421875 275.42382812 C-171.18134592 275.24728632 -164.86502782 280.05688175 -158.75403285 285.80775428 C-156.113573 288.37154923 -153.52547649 290.98503343 -150.94091797 293.60498047 C-149.76790439 294.77912449 -148.59400506 295.95238417 -147.41929626 297.12483215 C-144.25601439 300.28697363 -141.10515653 303.46123127 -137.95649862 306.63792562 C-134.65523231 309.96431851 -131.34251755 313.2792712 -128.03103638 316.5954895 C-121.77238283 322.86653986 -115.52398971 329.14770987 -109.27928078 335.43264306 C-102.16501279 342.59173155 -95.03928608 349.73936832 -87.91260695 356.88609862 C-73.26234787 371.57808735 -58.62643103 386.28429188 -44 401 C-43.99910437 399.79267561 -43.99910437 399.79267561 -43.99819064 398.56096083 C-43.96230079 350.86258693 -43.9056681 303.16427612 -43.82207905 255.46596071 C-43.81206153 249.73943305 -43.80221741 244.0129051 -43.79248047 238.28637695 C-43.78956841 236.57629588 -43.78956841 236.57629588 -43.78659752 234.83166771 C-43.75557201 216.36935115 -43.73859533 197.90704703 -43.72680578 179.44470931 C-43.71439709 160.50223249 -43.68690202 141.55982094 -43.64538693 122.61738533 C-43.62024353 110.92782654 -43.60688334 99.238376 -43.60857043 87.54878979 C-43.60860017 79.53402615 -43.5939828 71.51937281 -43.56783572 63.50465215 C-43.55318054 58.87978467 -43.54499477 54.25514341 -43.55419731 49.63025665 C-43.56248394 45.39399368 -43.55233032 41.15818523 -43.52766338 36.92198967 C-43.52197941 35.39156706 -43.52299578 33.86110137 -43.53148755 32.33069176 C-43.59036514 20.72269932 -41.97763359 12.41066572 -33.93359375 3.7265625 C-24.83832917 -4.39486567 -10.71733427 -5.54548305 0 0 Z " fill="#030303" transform="translate(262,4)"/>
<path d="M0 0 C0 4.05164344 -1.61357669 5.79537442 -4 9 C-4.99 9.66 -5.98 10.32 -7 11 C-5.5140084 6.40693504 -3.14985318 3.56430755 0 0 Z " fill="#595959" transform="translate(228,8)"/>
<path d="M0 0 C0 3 0 3 -2.375 5.6875 C-5 8 -5 8 -7 8 C-6.34 6.68 -5.68 5.36 -5 4 C-4.34 4 -3.68 4 -3 4 C-3 3.34 -3 2.68 -3 2 C-2.01 1.34 -1.02 0.68 0 0 Z " fill="#5D5D5D" transform="translate(64,284)"/>
</svg>
