<svg width="105" height="80" viewBox="0 0 105 80" fill="none" xmlns="http://www.w3.org/2000/svg">
<g clip-path="url(#clip0_3_80)">
<mask id="mask0_3_80" style="mask-type:luminance" maskUnits="userSpaceOnUse" x="15" y="30" width="73" height="43">
<path d="M87.98 30.48H15.9V72.86H87.98V30.48Z" fill="white"/>
</mask>
<g mask="url(#mask0_3_80)">
<path d="M58.61 55.86C57.7321 55.8482 56.8773 55.5769 56.1532 55.0803C55.4292 54.5838 54.8682 53.8841 54.5408 53.0695C54.2135 52.2548 54.1345 51.3615 54.3137 50.502C54.493 49.6425 54.9224 48.8552 55.5481 48.2393C56.1738 47.6233 56.9676 47.2062 57.8298 47.0404C58.692 46.8747 59.584 46.9677 60.3934 47.3077C61.2029 47.6477 61.8937 48.2196 62.3789 48.9514C62.864 49.6831 63.1219 50.542 63.12 51.42C63.1094 52.6064 62.6287 53.7402 61.7831 54.5726C60.9376 55.405 59.7965 55.868 58.61 55.86ZM51.94 51.29C51.94 48.36 49.78 45.86 46.94 44.78C50.1464 43.4792 53.7336 43.4792 56.94 44.78C54.1 45.86 51.94 48.36 51.94 51.29ZM45.27 55.86C44.3921 55.8482 43.5373 55.5769 42.8132 55.0803C42.0892 54.5838 41.5282 53.8841 41.2008 53.0695C40.8735 52.2548 40.7945 51.3615 40.9737 50.502C41.153 49.6425 41.5824 48.8552 42.2081 48.2393C42.8338 47.6233 43.6276 47.2062 44.4898 47.0404C45.352 46.8747 46.244 46.9677 47.0534 47.3077C47.8629 47.6477 48.5537 48.2196 49.0389 48.9514C49.524 49.6831 49.7819 50.542 49.78 51.42C49.7694 52.6064 49.2887 53.7402 48.4431 54.5726C47.5976 55.405 46.4565 55.868 45.27 55.86ZM63.1 46.56L65.28 44.23H60.45C57.9335 42.5502 54.9757 41.6537 51.95 41.6537C48.9243 41.6537 45.9665 42.5502 43.45 44.23H38.6L40.78 46.56C40.094 47.1702 39.5451 47.9188 39.1693 48.7565C38.7936 49.5941 38.5995 50.5019 38.6 51.42C38.625 52.706 39.0202 53.9576 39.7383 55.0247C40.4564 56.0919 41.4669 56.9294 42.6488 57.437C43.8307 57.9446 45.1338 58.1007 46.4021 57.8866C47.6705 57.6725 48.8502 57.0974 49.8 56.23L51.94 58.52L54.08 56.23C55.0298 57.0974 56.2095 57.6725 57.4779 57.8866C58.7462 58.1007 60.0493 57.9446 61.2312 57.437C62.4131 56.9294 63.4236 56.0919 64.1417 55.0247C64.8598 53.9576 65.255 52.706 65.28 51.42C65.2805 50.5019 65.0864 49.5941 64.7107 48.7565C64.3349 47.9188 63.786 47.1702 63.1 46.56ZM61 51.42C61.0079 51.8908 60.8755 52.3533 60.6195 52.7485C60.3635 53.1437 59.9956 53.4536 59.5627 53.6389C59.1298 53.8241 58.6516 53.8762 58.1889 53.7885C57.7263 53.7008 57.3003 53.4773 56.9653 53.1465C56.6302 52.8157 56.4012 52.3926 56.3076 51.9311C56.214 51.4697 56.26 50.9908 56.4397 50.5556C56.6194 50.1203 56.9246 49.7485 57.3165 49.4875C57.7084 49.2265 58.1691 49.0881 58.64 49.09C58.9481 49.0874 59.2538 49.1456 59.5393 49.2614C59.8249 49.3772 60.0848 49.5483 60.304 49.7647C60.5233 49.9812 60.6977 50.2389 60.8171 50.523C60.9365 50.807 60.9987 51.1119 61 51.42ZM47.67 51.42C47.6779 51.8904 47.5457 52.3525 47.2902 52.7474C47.0346 53.1424 46.6673 53.4524 46.235 53.6379C45.8027 53.8234 45.325 53.8761 44.8626 53.7892C44.4003 53.7024 43.9743 53.4799 43.6388 53.1501C43.3034 52.8202 43.0736 52.3981 42.9789 51.9373C42.8842 51.4765 42.9287 50.9979 43.1068 50.5625C43.285 50.1271 43.5887 49.7546 43.9792 49.4924C44.3698 49.2301 44.8296 49.0901 45.3 49.09C45.9181 49.0926 46.5102 49.3386 46.9482 49.7747C47.3862 50.2108 47.6347 50.8019 47.64 51.42H47.67ZM51.94 67C48.6058 66.9487 45.3612 65.9128 42.6141 64.0225C39.8671 62.1322 37.7402 59.4719 36.501 56.3761C35.2618 53.2803 34.9656 49.8872 35.6496 46.6235C36.3335 43.3598 37.9672 40.3712 40.3451 38.0334C42.723 35.6957 45.739 34.1132 49.0139 33.4849C52.2888 32.8566 55.6763 33.2106 58.7506 34.5023C61.8248 35.7941 64.4485 37.9659 66.2918 40.7448C68.135 43.5236 69.1155 46.7854 69.11 50.12C69.0943 52.3567 68.6374 54.5684 67.7654 56.6282C66.8934 58.688 65.6235 60.5555 64.0284 62.1236C62.4334 63.6917 60.5445 64.9297 58.4702 65.7664C56.3958 66.6032 54.1767 67.0224 51.94 67ZM51.94 31.07C48.1969 31.135 44.5564 32.3044 41.4756 34.4313C38.3948 36.5581 36.0109 39.5478 34.6233 43.0248C33.2357 46.5018 32.9062 50.3112 33.6762 53.9749C34.4462 57.6385 36.2813 60.993 38.9511 63.6173C41.621 66.2416 45.0066 68.0187 48.683 68.7255C52.3593 69.4322 56.1625 69.0372 59.6152 67.5899C63.0678 66.1427 66.0159 63.7077 68.0894 60.5907C70.1629 57.4738 71.2694 53.8137 71.27 50.07C71.2172 44.9927 69.1522 40.1438 65.5283 36.5873C61.9043 33.0308 57.0174 31.0574 51.94 31.1V31.07Z" fill="white"/>
<path d="M41.18 71.17C39.2137 69.8846 36.9603 69.1048 34.62 68.9C32.0671 68.6385 29.5003 69.2406 27.33 70.61C29.6153 71.4365 31.9988 71.9609 34.42 72.17C36.7226 72.4989 39.0712 72.1515 41.18 71.17Z" fill="white"/>
<path d="M34.62 67.52C32.8776 65.9327 30.8385 64.7059 28.62 63.91C26.1436 63.0336 23.4769 62.8402 20.9 63.35C22.8516 65.0058 25.0833 66.2994 27.49 67.17C29.7521 68.1191 32.2758 68.243 34.62 67.52Z" fill="white"/>
<path d="M28.35 62.46C27.2705 60.2025 25.7428 58.1883 23.86 56.54C21.7809 54.7178 19.2362 53.5094 16.51 53.05C17.7762 55.4534 19.4706 57.6054 21.51 59.4C23.3456 61.2126 25.7753 62.2996 28.35 62.46Z" fill="white"/>
<path d="M27.13 56.79C26.6776 54.334 25.7356 51.9942 24.36 49.91C22.8392 47.6222 20.7042 45.8095 18.2 44.68C18.7788 47.3181 19.8326 49.829 21.31 52.09C22.605 54.3199 24.6774 55.9935 27.13 56.79Z" fill="white"/>
<path d="M27.28 49.21C27.0619 46.6931 26.3519 44.2434 25.19 42C23.9213 39.5644 21.9906 37.5365 19.62 36.15C19.95 38.8599 20.7557 41.4902 22 43.92C23.0437 46.2767 24.9253 48.1619 27.28 49.21Z" fill="white"/>
<path d="M36.65 65.37C35.7734 63.5176 34.5319 61.8612 33 60.5C31.3061 58.9998 29.229 57.9993 27 57.61C28.0042 59.5762 29.3599 61.342 31 62.82C32.5085 64.3318 34.5184 65.2389 36.65 65.37Z" fill="white"/>
<path d="M43.32 69C42.1818 68.0255 40.8777 67.2634 39.47 66.75C37.9288 66.1747 36.2654 66.0059 34.64 66.26C35.8958 67.2815 37.3115 68.089 38.83 68.65C40.246 69.2633 41.8261 69.3865 43.32 69Z" fill="white"/>
<path d="M49.79 70.27C48.6606 69.8744 47.4652 69.7012 46.27 69.76C44.9538 69.833 43.682 70.2615 42.59 71C43.8299 71.3782 45.1248 71.5439 46.42 71.49C47.6521 71.4938 48.8459 71.0616 49.79 70.27Z" fill="white"/>
<path d="M33.73 59.51C33.264 57.5225 32.4036 55.6488 31.2 54C29.87 52.2114 28.0699 50.8267 26 50C26.5758 52.132 27.5347 54.1414 28.83 55.93C29.9727 57.6804 31.7151 58.9534 33.73 59.51Z" fill="white"/>
<path d="M31.12 51.66C31.409 49.6169 31.29 47.5368 30.77 45.54C30.2106 43.3776 29.0489 41.4183 27.42 39.89C27.1764 42.1064 27.3322 44.3486 27.88 46.51C28.2785 48.5712 29.4344 50.4085 31.12 51.66Z" fill="white"/>
<path d="M62.7 71.17C64.6663 69.8846 66.9197 69.1048 69.26 68.9C71.8129 68.6385 74.3797 69.2406 76.55 70.61C74.2647 71.4365 71.8812 71.9609 69.46 72.17C67.1574 72.4989 64.8088 72.1515 62.7 71.17Z" fill="white"/>
<path d="M69.26 67.52C71.0003 65.93 73.04 64.7027 75.26 63.91C77.743 63.032 80.4165 62.8385 83 63.35C81.0464 65.0028 78.8152 66.2961 76.41 67.17C74.142 68.124 71.6103 68.2479 69.26 67.52Z" fill="white"/>
<path d="M75.52 62.46C76.5999 60.2054 78.1236 58.1919 80 56.54C82.0791 54.7178 84.6238 53.5094 87.35 53.05C86.0838 55.4534 84.3894 57.6054 82.35 59.4C80.5159 61.2089 78.0908 62.2954 75.52 62.46Z" fill="white"/>
<path d="M76.75 56.79C77.2024 54.334 78.1444 51.9942 79.52 49.91C81.0408 47.6222 83.1758 45.8095 85.68 44.68C85.1013 47.3181 84.0474 49.829 82.57 52.09C81.275 54.3199 79.2026 55.9935 76.75 56.79Z" fill="white"/>
<path d="M76.6 49.21C76.8181 46.6931 77.5282 44.2434 78.69 42C79.9587 39.5644 81.8894 37.5365 84.26 36.15C83.9311 38.8633 83.1254 41.4971 81.88 43.93C80.8343 46.283 78.9529 48.1643 76.6 49.21Z" fill="white"/>
<path d="M67.23 65.37C68.1007 63.5194 69.3353 61.8631 70.86 60.5C72.5527 58.998 74.6304 57.9972 76.86 57.61C75.8514 59.5735 74.4963 61.3385 72.86 62.82C71.3565 64.3273 69.3546 65.2341 67.23 65.37Z" fill="white"/>
<path d="M60.56 69C61.6934 68.024 62.9945 67.2617 64.4 66.75C65.9447 66.1747 67.6113 66.006 69.24 66.26C67.9841 67.2815 66.5685 68.089 65.05 68.65C63.634 69.2633 62.0539 69.3865 60.56 69Z" fill="white"/>
<path d="M54.09 70.27C55.2194 69.8744 56.4147 69.7012 57.61 69.76C58.9262 69.833 60.198 70.2615 61.29 71C60.0501 71.3782 58.7552 71.5439 57.46 71.49C56.2279 71.4938 55.0341 71.0616 54.09 70.27Z" fill="white"/>
<path d="M70.15 59.51C70.616 57.5225 71.4764 55.6488 72.68 54C74.0182 52.207 75.8291 50.822 77.91 50C77.3415 52.1329 76.3856 54.143 75.09 55.93C73.9375 57.6882 72.1796 58.9622 70.15 59.51Z" fill="white"/>
<path d="M72.76 51.66C72.4704 49.6175 72.5859 47.5379 73.1 45.54C73.6653 43.3777 74.83 41.4191 76.46 39.89C76.7036 42.1064 76.5478 44.3486 76 46.51C75.6015 48.5712 74.4456 50.4085 72.76 51.66Z" fill="white"/>
<path d="M53 71.2C53.002 71.412 52.9409 71.6199 52.8246 71.7972C52.7082 71.9744 52.5418 72.1131 52.3464 72.1957C52.1511 72.2782 51.9357 72.3008 51.7275 72.2606C51.5192 72.2205 51.3276 72.1194 51.177 71.9701C51.0264 71.8209 50.9235 71.6303 50.8814 71.4225C50.8392 71.2146 50.8598 70.999 50.9405 70.8029C51.0212 70.6068 51.1583 70.4391 51.3345 70.321C51.5107 70.203 51.7179 70.14 51.93 70.14C52.07 70.1387 52.209 70.1651 52.3387 70.2178C52.4685 70.2705 52.5865 70.3483 52.686 70.4469C52.7855 70.5455 52.8645 70.6628 52.9184 70.792C52.9723 70.9213 53 71.06 53 71.2Z" fill="white"/>
</g>
<path d="M34.44 10.82V11.65H32.18V18.28H31.27V11.65H29V10.82H34.44Z" fill="white"/>
<path d="M36.1 13H37.1V13.82H36C35.8879 13.8048 35.7737 13.816 35.6666 13.8525C35.5595 13.889 35.4624 13.9499 35.3829 14.0304C35.3033 14.1109 35.2436 14.2088 35.2084 14.3163C35.1732 14.4238 35.1635 14.5381 35.18 14.65V18.27H34.31V13H35.11V13.75C35.1533 13.5265 35.278 13.3269 35.46 13.19C35.6476 13.06 35.8719 12.9935 36.1 13Z" fill="white"/>
<path d="M40.09 18.43C39.6187 18.4356 39.155 18.3111 38.75 18.07C38.3325 17.833 37.987 17.4875 37.75 17.07C37.4552 16.5287 37.34 15.9077 37.4209 15.2967C37.5018 14.6856 37.7746 14.116 38.2 13.67C38.4449 13.4256 38.7331 13.229 39.05 13.09C39.3953 12.9388 39.7681 12.8608 40.145 12.8608C40.5219 12.8608 40.8947 12.9388 41.24 13.09C41.5597 13.2452 41.8401 13.4708 42.06 13.75V13H42.87V18.27H42.1V17.37C41.8903 17.6844 41.6093 17.9448 41.28 18.13C40.9176 18.3355 40.5065 18.4391 40.09 18.43ZM40.21 17.64C40.4582 17.6429 40.7044 17.5946 40.9332 17.4983C41.162 17.4019 41.3686 17.2596 41.54 17.08C41.8998 16.6887 42.0995 16.1766 42.0995 15.645C42.0995 15.1134 41.8998 14.6013 41.54 14.21C41.3671 14.0323 41.1603 13.8912 40.9318 13.795C40.7034 13.6988 40.4579 13.6495 40.21 13.65C39.96 13.6452 39.7117 13.6924 39.481 13.7889C39.2503 13.8853 39.0422 14.0287 38.87 14.21C38.6833 14.3986 38.538 14.6241 38.4433 14.8721C38.3486 15.12 38.3066 15.3849 38.32 15.65C38.3084 15.9149 38.3512 16.1793 38.4458 16.427C38.5404 16.6746 38.6848 16.9003 38.87 17.09C39.0431 17.2695 39.2516 17.4111 39.4822 17.5057C39.7129 17.6004 39.9607 17.6461 40.21 17.64Z" fill="white"/>
<path d="M46.54 18.28H45.54L43.68 13H44.61L45.85 16.73C45.95 17.08 46.02 17.3 46.04 17.38C46.04 17.24 46.14 17.02 46.23 16.73L47.46 13H48.39L46.54 18.28Z" fill="white"/>
<path d="M53.92 15.51V15.79H49.56C49.5515 16.1386 49.6342 16.4833 49.8 16.79C49.9457 17.0642 50.1681 17.29 50.44 17.44C50.7129 17.5885 51.0194 17.6643 51.33 17.66C51.7077 17.6753 52.08 17.5664 52.39 17.35C52.6731 17.155 52.8813 16.8693 52.98 16.54H53.82C53.6789 17.0807 53.3667 17.5613 52.93 17.91C52.4736 18.2645 51.9076 18.4484 51.33 18.43C50.9746 18.4421 50.6207 18.3789 50.2915 18.2444C49.9623 18.11 49.6653 17.9074 49.42 17.65C48.9201 17.1065 48.6543 16.388 48.68 15.65C48.6652 15.1509 48.7752 14.6559 49 14.21C49.22 13.7966 49.5485 13.4509 49.95 13.21C50.3577 12.9766 50.8202 12.8558 51.29 12.86C51.6367 12.8441 51.983 12.8988 52.308 13.0208C52.6329 13.1429 52.9296 13.3297 53.18 13.57C53.4281 13.8266 53.6215 14.1308 53.7487 14.4642C53.8759 14.7976 53.9342 15.1534 53.92 15.51ZM51.31 13.61C50.906 13.5996 50.513 13.7425 50.21 14.01C49.8928 14.2911 49.6811 14.6722 49.61 15.09H53.06C53.0258 14.6688 52.8285 14.2777 52.51 14C52.171 13.7278 51.7442 13.5891 51.31 13.61Z" fill="white"/>
<path d="M55.82 18.28H55V10.82H55.87L55.82 18.28Z" fill="white"/>
<path d="M58.09 18.28H57.21V10.82H58.09V18.28Z" fill="white"/>
<path d="M64.33 15.51V15.79H60C59.9945 16.1395 60.0807 16.4842 60.25 16.79C60.3928 17.0663 60.6159 17.2929 60.89 17.44C61.2001 17.6083 61.5501 17.6888 61.9025 17.6729C62.2549 17.6571 62.5963 17.5454 62.89 17.35C63.1704 17.1522 63.3778 16.8675 63.48 16.54H64.31C64.1723 17.0822 63.8594 17.5638 63.42 17.91C62.9682 18.2661 62.4048 18.4503 61.83 18.43C61.4745 18.4427 61.1204 18.3798 60.7912 18.2453C60.4619 18.1108 60.1649 17.9079 59.92 17.65C59.6706 17.3821 59.4768 17.0674 59.3498 16.7241C59.2228 16.3808 59.1651 16.0157 59.18 15.65C59.1713 15.1491 59.2882 14.6541 59.52 14.21C59.755 13.791 60.101 13.445 60.52 13.21C60.9277 12.9766 61.3902 12.8558 61.86 12.86C62.2051 12.8448 62.5497 12.8999 62.8729 13.022C63.1961 13.144 63.4911 13.3305 63.74 13.57C63.9614 13.8385 64.1274 14.1482 64.2287 14.4811C64.3299 14.814 64.3644 15.1637 64.33 15.51ZM61.73 13.61C61.3258 13.5986 60.9325 13.7417 60.63 14.01C60.3023 14.2871 60.0799 14.6684 60 15.09H63.46C63.4274 14.6706 63.2339 14.28 62.92 14C62.585 13.7277 62.1612 13.5888 61.73 13.61Z" fill="white"/>
<path d="M67.14 13H68.14V13.82H67.05C66.9379 13.8048 66.8237 13.8159 66.7166 13.8524C66.6095 13.889 66.5124 13.9499 66.4329 14.0304C66.3533 14.1109 66.2936 14.2087 66.2584 14.3163C66.2232 14.4238 66.2135 14.5381 66.23 14.65V18.27H65.36V13H66.17V13.75C66.206 13.5262 66.328 13.3252 66.51 13.19C66.6948 13.0621 66.9153 12.9956 67.14 13Z" fill="white"/>
<path d="M70.71 18.43C70.4476 18.4421 70.1854 18.4025 69.9383 18.3132C69.6912 18.224 69.4641 18.087 69.27 17.91C69.0954 17.7347 68.9591 17.5251 68.8696 17.2945C68.7801 17.0638 68.7394 16.8172 68.75 16.57H69.62C69.6097 16.8581 69.714 17.1386 69.91 17.35C70.012 17.4578 70.1367 17.5415 70.2751 17.5952C70.4134 17.6488 70.562 17.6709 70.71 17.66C70.9836 17.6714 71.2526 17.5865 71.47 17.42C71.5631 17.3508 71.6381 17.26 71.6886 17.1556C71.7391 17.0511 71.7636 16.936 71.76 16.82C71.7673 16.7239 71.7531 16.6274 71.7185 16.5375C71.684 16.4475 71.6298 16.3664 71.56 16.3C71.3592 16.1372 71.1228 16.0241 70.87 15.97L70.09 15.75C69.7496 15.6602 69.4412 15.4765 69.2 15.22C69.0764 15.078 68.9832 14.9121 68.9261 14.7327C68.869 14.5533 68.8492 14.3641 68.8679 14.1768C68.8866 13.9894 68.9435 13.8079 69.035 13.6434C69.1265 13.4788 69.2507 13.3347 69.4 13.22C69.7755 12.9518 70.2288 12.8147 70.69 12.83C71.1535 12.8123 71.6068 12.9693 71.96 13.27C72.1197 13.4048 72.2473 13.5735 72.3338 13.7637C72.4203 13.954 72.4634 14.1611 72.46 14.37H71.62C71.6212 14.2607 71.5975 14.1526 71.5507 14.0539C71.504 13.9551 71.4353 13.8683 71.35 13.8C71.1648 13.6464 70.9305 13.5648 70.69 13.57C70.4472 13.5599 70.2069 13.6226 70 13.75C69.9167 13.8016 69.8481 13.8738 69.8008 13.9596C69.7535 14.0454 69.7291 14.142 69.73 14.24C69.7273 14.3296 69.7437 14.4188 69.7782 14.5016C69.8127 14.5844 69.8644 14.6588 69.93 14.72C70.1306 14.8711 70.3579 14.983 70.6 15.05L71.38 15.28C72.22 15.53 72.64 16 72.64 16.71C72.6423 16.9382 72.5942 17.164 72.4991 17.3715C72.4041 17.5789 72.2644 17.7628 72.09 17.91C71.713 18.2528 71.2194 18.4388 70.71 18.43Z" fill="white"/>
<path d="M73.69 13.07H73.56V12.56H73.65C73.8242 12.5674 73.9951 12.5105 74.13 12.4C74.2561 12.2558 74.3269 12.0715 74.33 11.88C74.2641 11.8947 74.1959 11.8947 74.13 11.88C74.0514 11.88 73.9737 11.864 73.9015 11.8331C73.8293 11.8022 73.7642 11.7569 73.71 11.7C73.5976 11.5815 73.5365 11.4233 73.54 11.26C73.5386 11.097 73.5994 10.9397 73.71 10.82C73.7667 10.7575 73.8363 10.7081 73.914 10.6753C73.9917 10.6425 74.0757 10.627 74.16 10.63C74.2601 10.6265 74.3594 10.6485 74.4486 10.694C74.5379 10.7395 74.614 10.8069 74.67 10.89C74.8089 11.1072 74.8754 11.3627 74.86 11.62C74.8894 11.9993 74.7791 12.3763 74.55 12.68C74.4451 12.8053 74.3133 12.9055 74.1644 12.973C74.0156 13.0405 73.8534 13.0736 73.69 13.07Z" fill="white"/>
<path d="M3.72 27.49C3.34738 27.4922 2.97655 27.4383 2.62 27.33C1.89647 27.0843 1.26737 26.6194 0.819999 26C0.585504 25.6975 0.399915 25.36 0.269999 25C0.00355694 24.1197 0.00355694 23.1803 0.269999 22.3C0.39403 21.9097 0.57971 21.5417 0.819999 21.21C1.04926 20.9108 1.32233 20.6478 1.63 20.43C1.93224 20.2096 2.27066 20.0438 2.63 19.94C2.98244 19.8277 3.35009 19.7703 3.72 19.77C4.26759 19.7641 4.80997 19.8767 5.31 20.1C5.78832 20.3262 6.20126 20.6703 6.51 21.1C6.83592 21.5269 7.04914 22.029 7.13 22.56H6.21C6.09577 21.9944 5.7749 21.4917 5.31 21.15C4.85049 20.8098 4.29166 20.6305 3.72 20.64C3.01476 20.6458 2.33848 20.9213 1.83 21.41C1.55671 21.6953 1.34858 22.0364 1.22 22.41C1.0813 22.7952 1.00698 23.2006 0.999999 23.61C0.99556 24.0571 1.07353 24.5012 1.23 24.92C1.35331 25.296 1.56211 25.6383 1.84 25.92C2.09487 26.1662 2.39327 26.3628 2.72 26.5C3.03739 26.6303 3.37691 26.6982 3.72 26.7C4.29692 26.7134 4.86122 26.53 5.32 26.18C5.78258 25.8379 6.10014 25.3348 6.21 24.77H7.13C7.01318 25.5628 6.59385 26.2796 5.96 26.77C5.31879 27.2613 4.52738 27.5157 3.72 27.49Z" fill="white"/>
<path d="M9 27.34H8.12V19.88H9V22.78C9.1574 22.5215 9.38207 22.3107 9.65 22.17C9.95901 22.0103 10.3022 21.9279 10.65 21.93C10.9021 21.9205 11.1532 21.9657 11.3863 22.0623C11.6193 22.159 11.8286 22.3049 12 22.49C12.3662 22.9053 12.5563 23.4469 12.53 24V27.37H11.66V24.08C11.6664 23.8964 11.6361 23.7134 11.5708 23.5417C11.5056 23.37 11.4067 23.213 11.28 23.08C11.1544 22.958 11.0056 22.8623 10.8425 22.7988C10.6793 22.7352 10.505 22.7051 10.33 22.71C10.1551 22.7062 9.98116 22.7369 9.81814 22.8004C9.65513 22.8639 9.50624 22.9589 9.38 23.08C9.25007 23.2112 9.14843 23.3676 9.08135 23.5396C9.01427 23.7116 8.98318 23.8955 8.99 24.08L9 27.34Z" fill="white"/>
<path d="M16.31 27.49C15.93 27.4909 15.5534 27.4197 15.2 27.28C14.8708 27.1429 14.5718 26.9424 14.32 26.69C14.0672 26.4366 13.8698 26.1335 13.74 25.8C13.5995 25.4539 13.5281 25.0836 13.53 24.71C13.5233 24.2133 13.6474 23.7235 13.89 23.29C14.1262 22.8719 14.4719 22.5262 14.89 22.29C15.329 22.0519 15.8206 21.9272 16.32 21.9272C16.8194 21.9272 17.311 22.0519 17.75 22.29C18.1703 22.5233 18.5167 22.8697 18.75 23.29C18.9925 23.7235 19.1167 24.2133 19.11 24.71C19.1168 25.2036 18.9926 25.6901 18.75 26.12C18.5155 26.5393 18.1693 26.8855 17.75 27.12C17.3108 27.3677 16.8142 27.4953 16.31 27.49ZM16.31 26.7C16.5609 26.7075 16.8107 26.6625 17.0432 26.5678C17.2757 26.4731 17.4858 26.3307 17.66 26.15C17.848 25.9618 17.9948 25.7367 18.0912 25.4888C18.1876 25.2409 18.2315 24.9757 18.22 24.71C18.2317 24.4428 18.1879 24.176 18.0916 23.9265C17.9952 23.6769 17.8483 23.45 17.66 23.26C17.4843 23.0812 17.2739 22.9402 17.0418 22.8456C16.8096 22.751 16.5606 22.7049 16.31 22.71C16.058 22.7058 15.8078 22.7524 15.5741 22.8469C15.3405 22.9414 15.1283 23.0818 14.95 23.26C14.7664 23.4529 14.6232 23.6805 14.5287 23.9295C14.4343 24.1785 14.3905 24.4439 14.4 24.71C14.3984 24.978 14.4507 25.2435 14.5538 25.4909C14.6569 25.7383 14.8086 25.9624 15 26.15C15.171 26.3239 15.3749 26.4621 15.5998 26.5565C15.8247 26.651 16.0661 26.6997 16.31 26.7Z" fill="white"/>
<path d="M20.54 21.18C20.4544 21.1818 20.3693 21.1659 20.2901 21.1332C20.2109 21.1005 20.1394 21.0517 20.08 20.99C20.0173 20.9314 19.9678 20.86 19.9351 20.7806C19.9023 20.7013 19.8869 20.6158 19.89 20.53C19.8861 20.4426 19.9011 20.3554 19.9339 20.2743C19.9666 20.1932 20.0165 20.1201 20.08 20.06C20.1406 20.0006 20.2126 19.954 20.2916 19.923C20.3707 19.8921 20.4552 19.8775 20.54 19.88C20.7143 19.8756 20.8833 19.9403 21.01 20.06C21.0702 20.1221 21.1172 20.1958 21.1481 20.2766C21.1791 20.3574 21.1933 20.4436 21.19 20.53C21.1926 20.6172 21.1771 20.7041 21.1444 20.785C21.1117 20.8659 21.0625 20.9391 21 21C20.9394 21.0595 20.8674 21.106 20.7884 21.137C20.7093 21.1679 20.6248 21.1825 20.54 21.18ZM21 27.34H20.1V22.07H21V27.34Z" fill="white"/>
<path d="M24.67 27.49C24.3125 27.5003 23.9567 27.4354 23.626 27.2993C23.2952 27.1632 22.9967 26.959 22.75 26.7C22.4966 26.434 22.2988 26.1201 22.1683 25.7766C22.0378 25.4332 21.9772 25.0672 21.99 24.7C21.9756 24.3318 22.0365 23.9645 22.1689 23.6207C22.3013 23.2768 22.5024 22.9635 22.76 22.7C23.0052 22.4418 23.302 22.238 23.631 22.1019C23.9601 21.9658 24.314 21.9004 24.67 21.91C25.273 21.886 25.8671 22.0618 26.36 22.41C26.5776 22.5761 26.7603 22.7835 26.8975 23.0203C27.0348 23.2571 27.124 23.5187 27.16 23.79H26.29C26.1953 23.4695 25.9943 23.1909 25.72 23C25.3627 22.7624 24.9338 22.6564 24.5069 22.7002C24.0801 22.744 23.6817 22.9348 23.38 23.24C23.0406 23.645 22.8547 24.1566 22.8547 24.685C22.8547 25.2134 23.0406 25.725 23.38 26.13C23.5424 26.3069 23.7404 26.4473 23.9611 26.5421C24.1817 26.6369 24.4199 26.6839 24.66 26.68C25.0154 26.7111 25.3706 26.6186 25.6657 26.4182C25.9608 26.2178 26.1778 25.9218 26.28 25.58H27.15C27.0615 26.1408 26.7652 26.6477 26.32 27C25.8405 27.3438 25.2594 27.5164 24.67 27.49Z" fill="white"/>
<path d="M33 24.57V24.85H28.68C28.6715 25.1986 28.7542 25.5433 28.92 25.85C29.0689 26.1219 29.2905 26.3469 29.56 26.5C29.836 26.6497 30.146 26.7255 30.46 26.72C30.8346 26.7353 31.2038 26.6263 31.51 26.41C31.7958 26.2155 32.0072 25.93 32.11 25.6H32.94C32.8049 26.1516 32.4921 26.6435 32.05 27C31.5974 27.3545 31.0346 27.5386 30.46 27.52C30.1032 27.5316 29.7479 27.4682 29.4172 27.3338C29.0865 27.1995 28.7876 26.9972 28.54 26.74C28.0411 26.1959 27.7754 25.4778 27.8 24.74C27.7944 24.2383 27.9148 23.7432 28.15 23.3C28.3837 22.88 28.73 22.5337 29.15 22.3C29.5614 22.0667 30.0271 21.946 30.5 21.95C30.8451 21.9348 31.1897 21.9899 31.5129 22.112C31.8361 22.234 32.1311 22.4205 32.38 22.66C32.8302 23.1901 33.053 23.8765 33 24.57ZM30.4 22.67C29.9949 22.661 29.6004 22.7997 29.29 23.06C28.981 23.3477 28.771 23.7257 28.69 24.14H32.14C32.1033 23.7224 31.9062 23.3353 31.59 23.06C31.2638 22.8 30.8571 22.662 30.44 22.67H30.4Z" fill="white"/>
<path d="M42.18 27.34H41.24L40.5 25.4H37.09L36.36 27.34H35.36L38.23 19.88H39.23L42.18 27.34ZM38.6 21.4L37.4 24.57H40.19L39 21.4C38.87 21.07 38.81 20.9 38.81 20.89L38.6 21.4Z" fill="white"/>
<path d="M44.49 27.34H43.49L42.1 22.07H43L43.81 25.71C43.81 25.77 43.81 25.88 43.89 26.03C43.97 26.18 43.95 26.31 43.97 26.42C43.97 26.19 44.06 25.95 44.12 25.71L45.12 22.07H46L47 25.71C47.07 25.99 47.12 26.23 47.16 26.42C47.16 26.31 47.16 26.18 47.24 26.03C47.32 25.88 47.3 25.77 47.31 25.71L48.12 22.07H49L47.62 27.34H46.62L45.68 23.81C45.68 23.58 45.59 23.38 45.56 23.19C45.5289 23.399 45.4855 23.6061 45.43 23.81L44.49 27.34Z" fill="white"/>
<path d="M52 27.49C51.5288 27.4966 51.065 27.3719 50.6606 27.13C50.2562 26.888 49.927 26.5383 49.71 26.12C49.4796 25.6858 49.3594 25.2016 49.36 24.71C49.3613 23.9675 49.6436 23.253 50.15 22.71C50.3966 22.4677 50.6845 22.2713 51 22.13C51.3161 21.9943 51.656 21.9229 52 21.92C52.4043 21.9094 52.8053 21.9951 53.17 22.17C53.4919 22.3218 53.773 22.548 53.99 22.83V22.06H54.8V27.33H54V26.42C53.7937 26.7398 53.5121 27.0042 53.18 27.19C52.8188 27.3894 52.4125 27.4927 52 27.49ZM52.12 26.7C52.3679 26.7005 52.6134 26.6512 52.8419 26.555C53.0703 26.4588 53.2771 26.3177 53.45 26.14C53.8098 25.7487 54.0095 25.2366 54.0095 24.705C54.0095 24.1734 53.8098 23.6613 53.45 23.27C53.2752 23.0937 53.0673 22.9538 52.8381 22.8583C52.609 22.7629 52.3632 22.7137 52.115 22.7137C51.8668 22.7137 51.621 22.7629 51.3919 22.8583C51.1627 22.9538 50.9548 23.0937 50.78 23.27C50.4251 23.6677 50.2289 24.182 50.2289 24.715C50.2289 25.248 50.4251 25.7624 50.78 26.16C50.9493 26.3327 51.1517 26.4696 51.375 26.5624C51.5984 26.6551 51.8382 26.702 52.08 26.7H52.12Z" fill="white"/>
<path d="M58 22.07H59V22.88H57.86C57.32 22.88 57.05 23.16 57.05 23.72V27.34H56.17V22.07H57V22.82C57.0399 22.5976 57.1611 22.398 57.34 22.26C57.5307 22.1207 57.7645 22.0534 58 22.07Z" fill="white"/>
<path d="M62 27.49C61.5256 27.4954 61.0587 27.3709 60.65 27.13C60.2319 26.8938 59.8862 26.5481 59.65 26.13C59.4196 25.6958 59.2994 25.2116 59.3 24.72C59.3005 24.3425 59.3753 23.9687 59.52 23.62C59.6534 23.2883 59.8504 22.986 60.1 22.73C60.343 22.4834 60.6317 22.2864 60.95 22.15C61.2917 21.9987 61.6613 21.9206 62.035 21.9206C62.4087 21.9206 62.7783 21.9987 63.12 22.15C63.4245 22.289 63.6892 22.5022 63.89 22.77V19.88H64.76V27.34H64V26.43C63.7963 26.752 63.5141 27.0169 63.18 27.2C62.8185 27.3976 62.4118 27.4975 62 27.49ZM62.11 26.7C62.3582 26.7029 62.6044 26.6546 62.8332 26.5583C63.062 26.4619 63.2686 26.3196 63.44 26.14C63.7998 25.7487 63.9995 25.2366 63.9995 24.705C63.9995 24.1734 63.7998 23.6613 63.44 23.27C63.2686 23.0904 63.062 22.9481 62.8332 22.8517C62.6044 22.7554 62.3582 22.7071 62.11 22.71C61.861 22.7057 61.6137 22.7522 61.3833 22.8468C61.1528 22.9414 60.9442 23.082 60.77 23.26C60.4211 23.6606 60.2289 24.1738 60.2289 24.705C60.2289 25.2362 60.4211 25.7495 60.77 26.15C60.9373 26.3233 61.1376 26.4613 61.3592 26.5558C61.5808 26.6503 61.8191 26.6993 62.06 26.7H62.11Z" fill="white"/>
<path d="M67.77 27.49C67.5109 27.5088 67.2508 27.475 67.005 27.3908C66.7593 27.3066 66.5331 27.1737 66.34 27C66.1636 26.8256 66.0254 26.6164 65.9342 26.3857C65.843 26.155 65.8007 25.9079 65.81 25.66H66.69C66.6844 25.8027 66.7071 25.9452 66.7569 26.0791C66.8066 26.2129 66.8825 26.3356 66.98 26.44C67.0809 26.5464 67.204 26.6294 67.3405 26.683C67.477 26.7365 67.6236 26.7594 67.77 26.75C68.0438 26.7632 68.3134 26.678 68.53 26.51C68.6243 26.4413 68.7008 26.3509 68.753 26.2465C68.8052 26.1421 68.8316 26.0267 68.83 25.91C68.8359 25.8141 68.8211 25.718 68.7866 25.6282C68.7521 25.5385 68.6987 25.4573 68.63 25.39C68.428 25.229 68.1921 25.1162 67.94 25.06L67.16 24.83C66.8169 24.7466 66.5068 24.5619 66.27 24.3C66.149 24.1615 66.0578 23.9997 66.0021 23.8245C65.9463 23.6492 65.9272 23.4644 65.946 23.2815C65.9648 23.0986 66.021 22.9215 66.1111 22.7613C66.2013 22.601 66.3234 22.461 66.47 22.35C66.841 22.0805 67.2917 21.9432 67.75 21.96C68.2172 21.9377 68.6752 22.0951 69.03 22.4C69.1884 22.5353 69.3145 22.7043 69.3993 22.8946C69.4841 23.0849 69.5253 23.2917 69.52 23.5H68.69C68.692 23.3906 68.6686 23.2822 68.6218 23.1834C68.5749 23.0845 68.5059 22.9978 68.42 22.93C68.2322 22.7742 67.9939 22.6923 67.75 22.7C67.5105 22.6913 67.2738 22.754 67.07 22.88C66.986 22.9308 66.9168 23.0029 66.8694 23.0889C66.822 23.1749 66.7981 23.2718 66.8 23.37C66.7945 23.46 66.8096 23.55 66.8443 23.6332C66.8789 23.7164 66.9322 23.7906 67 23.85C67.1988 24.0018 67.427 24.1108 67.67 24.17L68.45 24.41C69.29 24.65 69.7 25.13 69.7 25.83C69.7 26.0535 69.6507 26.2742 69.5556 26.4764C69.4605 26.6786 69.322 26.8574 69.15 27C68.7685 27.3319 68.2754 27.507 67.77 27.49Z" fill="white"/>
<path d="M75.11 27.34H74L72.11 19.88H73.11L74.43 25.53C74.4886 25.7439 74.5354 25.9609 74.57 26.18C74.5998 25.9609 74.6432 25.7438 74.7 25.53L76.12 19.88H77.12L78.55 25.53C78.6068 25.7438 78.6502 25.9609 78.68 26.18C78.7098 25.96 78.7566 25.7427 78.82 25.53L80.14 19.88H81.14L79.25 27.34H78.18L76.83 22C76.72 21.53 76.65 21.27 76.64 21.21C76.63 21.15 76.57 21.53 76.46 22L75.11 27.34Z" fill="white"/>
<path d="M82.32 21.18C82.2328 21.1826 82.146 21.1671 82.0651 21.1344C81.9841 21.1017 81.9109 21.0525 81.85 20.99C81.7273 20.8664 81.6584 20.6992 81.6584 20.525C81.6584 20.3508 81.7273 20.1836 81.85 20.06C81.9767 19.9403 82.1457 19.8756 82.32 19.88C82.4049 19.8775 82.4893 19.8921 82.5684 19.923C82.6474 19.954 82.7194 20.0006 82.78 20.06C82.9027 20.1836 82.9716 20.3508 82.9716 20.525C82.9716 20.6992 82.9027 20.8664 82.78 20.99C82.7214 21.0528 82.65 21.1022 82.5706 21.135C82.4913 21.1677 82.4058 21.1831 82.32 21.18ZM82.75 27.34H81.88V22.07H82.75V27.34Z" fill="white"/>
<path d="M85 27.34H84.13V22.07H85V22.81C85.1522 22.5458 85.3735 22.328 85.64 22.18C85.9458 22.0107 86.2906 21.9245 86.64 21.93C86.8853 21.9178 87.1302 21.9588 87.3581 22.0503C87.586 22.1418 87.7913 22.2816 87.96 22.46C88.2907 22.8456 88.4623 23.3425 88.44 23.85V27.34H87.56V24.06C87.5701 23.8769 87.5424 23.6936 87.4788 23.5216C87.4151 23.3496 87.3168 23.1925 87.19 23.06C86.9521 22.8237 86.6304 22.691 86.295 22.691C85.9597 22.691 85.6379 22.8237 85.4 23.06C85.2732 23.1925 85.1749 23.3496 85.1113 23.5216C85.0476 23.6936 85.02 23.8769 85.03 24.06L85 27.34Z" fill="white"/>
<path d="M90.69 27.34H89.81V22.07H90.63V22.81C90.7783 22.5462 90.9962 22.3282 91.26 22.18C91.5658 22.0107 91.9106 21.9245 92.26 21.93C92.5068 21.917 92.7535 21.9576 92.9831 22.0491C93.2127 22.1406 93.4198 22.2808 93.59 22.46C93.9128 22.8495 94.0802 23.3445 94.06 23.85V27.34H93.19V24.06C93.2 23.8769 93.1724 23.6936 93.1087 23.5216C93.0451 23.3496 92.9468 23.1925 92.82 23.06C92.702 22.9417 92.5617 22.8481 92.4072 22.7846C92.2526 22.7211 92.0871 22.6889 91.92 22.69C91.7545 22.6891 91.5904 22.7214 91.4376 22.785C91.2847 22.8485 91.1461 22.942 91.03 23.06C90.9032 23.1925 90.8049 23.3496 90.7413 23.5216C90.6776 23.6936 90.65 23.8769 90.66 24.06L90.69 27.34Z" fill="white"/>
<path d="M100.33 24.57V24.85H96C95.9915 25.1986 96.0742 25.5433 96.24 25.85C96.3857 26.1242 96.6081 26.35 96.88 26.5C97.156 26.6497 97.466 26.7255 97.78 26.72C98.1376 26.7244 98.4876 26.616 98.78 26.41C99.0631 26.2128 99.2738 25.9283 99.38 25.6H100.21C100.08 26.149 99.7747 26.6405 99.34 27C98.8866 27.353 98.3244 27.5369 97.75 27.52C97.3932 27.5316 97.0379 27.4682 96.7072 27.3338C96.3765 27.1995 96.0776 26.9972 95.83 26.74C95.3311 26.1959 95.0654 25.4778 95.09 24.74C95.0844 24.2383 95.2048 23.7432 95.44 23.3C95.6737 22.88 96.02 22.5337 96.44 22.3C96.8514 22.0667 97.3171 21.946 97.79 21.95C98.1351 21.9348 98.4797 21.9899 98.8029 22.112C99.1261 22.234 99.4211 22.4205 99.67 22.66C99.9 22.9194 100.077 23.2216 100.19 23.5493C100.303 23.8771 100.351 24.2239 100.33 24.57ZM97.72 22.67C97.3181 22.6617 96.9269 22.8003 96.62 23.06C96.311 23.3477 96.101 23.7257 96.02 24.14H99.47C99.4293 23.7235 99.2329 23.3378 98.92 23.06C98.5793 22.7911 98.1537 22.6527 97.72 22.67Z" fill="white"/>
<path d="M103.14 22.07H104.14V22.88H103.14C103.027 22.8645 102.912 22.8757 102.804 22.9127C102.696 22.9497 102.598 23.0116 102.518 23.0933C102.438 23.175 102.379 23.2742 102.345 23.3831C102.31 23.4919 102.302 23.6073 102.32 23.72V27.34H101.45V22.07H102.25V22.82C102.293 22.5965 102.418 22.3969 102.6 22.26C102.758 22.1454 102.945 22.0794 103.14 22.07Z" fill="white"/>
<path d="M29.22 0.369995V1.94H27V8.39999H25.34V1.94H23.15V0.369995H29.22Z" fill="white"/>
<path d="M32.32 2.73999H33V4.25999H32.15C32.0257 4.24317 31.8991 4.25548 31.7803 4.29592C31.6616 4.33637 31.5538 4.40386 31.4656 4.49306C31.3774 4.58227 31.311 4.69075 31.2719 4.80996C31.2327 4.92917 31.2218 5.05584 31.24 5.17999V8.39999H29.65V2.73999H31.14V3.73999C31.184 3.44999 31.3336 3.18646 31.56 2.99999C31.7738 2.82479 32.0437 2.73249 32.32 2.73999Z" fill="white"/>
<path d="M35.29 1.72C35.197 1.81373 35.0864 1.88812 34.9646 1.93889C34.8427 1.98966 34.712 2.0158 34.58 2.0158C34.448 2.0158 34.3173 1.98966 34.1954 1.93889C34.0736 1.88812 33.963 1.81373 33.87 1.72C33.7755 1.62739 33.7003 1.51694 33.6488 1.39507C33.5974 1.27319 33.5706 1.14231 33.57 1.01C33.5692 0.87601 33.5954 0.743229 33.6469 0.619544C33.6984 0.495859 33.7743 0.383792 33.87 0.29C33.963 0.196272 34.0736 0.121877 34.1954 0.0711086C34.3173 0.0203399 34.448 -0.00579834 34.58 -0.00579834C34.712 -0.00579834 34.8427 0.0203399 34.9646 0.0711086C35.0864 0.121877 35.197 0.196272 35.29 0.29C35.3857 0.383792 35.4616 0.495859 35.5131 0.619544C35.5646 0.743229 35.5908 0.87601 35.59 1.01C35.5895 1.14231 35.5627 1.27319 35.5112 1.39507C35.4597 1.51694 35.3845 1.62739 35.29 1.72ZM35.38 8.4H33.77V2.74H35.38V8.4Z" fill="white"/>
<path d="M38.13 10.69H36.52V2.74001H38V3.37001C38.1897 3.11575 38.4457 2.91856 38.74 2.80001C39.0863 2.64751 39.4617 2.57243 39.84 2.58001C40.2172 2.56668 40.5925 2.63789 40.9386 2.78843C41.2846 2.93896 41.5926 3.16501 41.84 3.45001C42.3663 4.02806 42.6461 4.78871 42.62 5.57001C42.6253 6.09202 42.5017 6.60728 42.26 7.07001C42.0308 7.5167 41.6853 7.89327 41.26 8.16001C40.8314 8.42741 40.3351 8.56624 39.83 8.56001C39.4867 8.57115 39.1453 8.50627 38.83 8.37001C38.5677 8.26323 38.337 8.0911 38.16 7.87001L38.13 10.69ZM38.44 6.69001C38.5803 6.82574 38.7464 6.93196 38.9285 7.00239C39.1105 7.07281 39.3049 7.106 39.5 7.10001C39.7019 7.10884 39.9034 7.07507 40.0914 7.00089C40.2794 6.92672 40.4497 6.8138 40.5912 6.66949C40.7327 6.52517 40.8422 6.35269 40.9126 6.16326C40.9831 5.97384 41.0128 5.7717 41 5.57001C41.0087 5.36833 40.975 5.16708 40.9009 4.97929C40.8268 4.79151 40.7141 4.62141 40.57 4.48001C40.4291 4.34519 40.2628 4.23957 40.0809 4.1692C39.899 4.09884 39.705 4.06513 39.51 4.07001C39.1166 4.06235 38.7359 4.20959 38.45 4.48001C38.3043 4.62115 38.1892 4.79075 38.1118 4.97825C38.0343 5.16576 37.9963 5.36718 38 5.57001C37.9958 5.77052 38.0327 5.96977 38.1083 6.15551C38.184 6.34124 38.2969 6.50953 38.44 6.65001V6.69001Z" fill="white"/>
<path d="M45.9 8.56C45.3981 8.566 44.905 8.42712 44.48 8.16C44.0556 7.89212 43.7104 7.51584 43.48 7.07C43.2459 6.60487 43.126 6.09069 43.13 5.57C43.1247 5.04479 43.2483 4.5263 43.49 4.06C43.7239 3.62129 44.0731 3.25478 44.5 3C44.9469 2.71346 45.4693 2.56718 46 2.58C46.3232 2.55955 46.6471 2.60581 46.9516 2.71591C47.2561 2.82602 47.5347 2.9976 47.77 3.22V2.74H49.26V8.4H47.72V7.71C47.51 7.99045 47.234 8.21475 46.9165 8.36301C46.599 8.51128 46.2499 8.57895 45.9 8.56ZM45.17 6.65C45.3103 6.78574 45.4764 6.89196 45.6585 6.96238C45.8405 7.0328 46.0349 7.066 46.23 7.06C46.4276 7.06699 46.6244 7.03323 46.8084 6.96082C46.9923 6.88841 47.1594 6.77891 47.2991 6.63913C47.4389 6.49936 47.5484 6.3323 47.6208 6.14836C47.6932 5.96443 47.727 5.76755 47.72 5.57C47.7287 5.36832 47.695 5.16707 47.6209 4.97929C47.5468 4.7915 47.4341 4.6214 47.29 4.48C47.1491 4.34518 46.9828 4.23956 46.8009 4.16919C46.619 4.09883 46.425 4.06512 46.23 4.07C45.8366 4.06234 45.4559 4.20958 45.17 4.48C45.0279 4.62285 44.9165 4.7932 44.8425 4.98063C44.7686 5.16806 44.7337 5.36861 44.74 5.57C44.7345 5.7698 44.7698 5.96862 44.8437 6.15431C44.9176 6.34 45.0287 6.50867 45.17 6.65Z" fill="white"/>
<path d="M52.81 8.56C52.311 8.56751 51.8207 8.42843 51.4 8.16C50.9707 7.89809 50.624 7.52026 50.4 7.07C50.1583 6.60727 50.0346 6.09201 50.04 5.57C50.0346 5.04479 50.1583 4.5263 50.4 4.06C50.6314 3.61754 50.9766 3.24475 51.4 2.98C51.8352 2.71098 52.3384 2.57218 52.85 2.58C53.1909 2.57508 53.5298 2.6327 53.85 2.75C54.1037 2.85287 54.3298 3.01385 54.51 3.22V0.369995H56.12V8.37H54.62V7.71C54.4115 7.98965 54.1372 8.21353 53.8215 8.3618C53.5058 8.51008 53.1583 8.57815 52.81 8.56ZM52.08 6.65C52.2203 6.78573 52.3864 6.89195 52.5685 6.96237C52.7505 7.0328 52.9449 7.06599 53.14 7.06C53.3375 7.06698 53.5344 7.03322 53.7184 6.96081C53.9023 6.88841 54.0693 6.77891 54.2091 6.63913C54.3489 6.49935 54.4584 6.33229 54.5308 6.14836C54.6032 5.96442 54.637 5.76755 54.63 5.57C54.6387 5.36832 54.6049 5.16706 54.5309 4.97928C54.4568 4.7915 54.3441 4.62139 54.2 4.48C54.0597 4.34426 53.8936 4.23804 53.7115 4.16762C53.5295 4.0972 53.3351 4.064 53.14 4.07C52.7466 4.06233 52.3659 4.20958 52.08 4.48C51.9392 4.62334 51.8293 4.79401 51.7571 4.98149C51.6848 5.16896 51.6518 5.36925 51.66 5.57C51.6526 5.76915 51.686 5.96771 51.7583 6.15345C51.8305 6.33919 51.94 6.50817 52.08 6.65Z" fill="white"/>
<path d="M60.58 8.39999H58.76L56.88 2.73999H58.59L59.45 5.73999C59.54 6.02999 59.61 6.29999 59.67 6.56999C59.67 6.34999 59.79 6.06999 59.89 5.73999L60.75 2.73999H62.46L60.58 8.39999Z" fill="white"/>
<path d="M64.73 1.71999C64.637 1.81372 64.5264 1.88811 64.4046 1.93888C64.2827 1.98965 64.152 2.01579 64.02 2.01579C63.888 2.01579 63.7573 1.98965 63.6354 1.93888C63.5136 1.88811 63.403 1.81372 63.31 1.71999C63.2125 1.62704 63.1348 1.51536 63.0815 1.39163C63.0282 1.26791 63.0005 1.13469 63 0.99999C62.9992 0.866 63.0254 0.73322 63.0769 0.609534C63.1284 0.485849 63.2043 0.373782 63.3 0.27999C63.393 0.186262 63.5036 0.111867 63.6254 0.0610988C63.7473 0.0103301 63.878 -0.0158081 64.01 -0.0158081C64.142 -0.0158081 64.2727 0.0103301 64.3946 0.0610988C64.5164 0.111867 64.627 0.186262 64.72 0.27999C64.8121 0.375438 64.8843 0.488251 64.9323 0.61186C64.9804 0.73547 65.0034 0.867406 65 0.99999C65.0047 1.13188 64.9833 1.26341 64.937 1.38698C64.8906 1.51055 64.8203 1.62373 64.73 1.71999ZM64.82 8.39999H63.21V2.73999H64.82V8.39999Z" fill="white"/>
<path d="M67.9 8.55999C67.3191 8.57543 66.753 8.37603 66.31 7.99999C66.0971 7.82261 65.9278 7.59874 65.8151 7.34561C65.7024 7.09248 65.6494 6.81686 65.66 6.53999H67.29C67.2854 6.62572 67.298 6.71152 67.3272 6.79227C67.3564 6.87301 67.4016 6.94705 67.46 7.00999C67.5202 7.06991 67.5922 7.11681 67.6713 7.14777C67.7504 7.17874 67.8351 7.19311 67.92 7.18999C68.0789 7.19875 68.2365 7.15672 68.37 7.06999C68.4209 7.02711 68.4616 6.97347 68.4893 6.91295C68.517 6.85243 68.5309 6.78653 68.53 6.71999C68.5313 6.64743 68.5146 6.57567 68.4815 6.51112C68.4483 6.44656 68.3997 6.39121 68.34 6.34999C68.1628 6.23103 67.9667 6.1431 67.76 6.08999L67 5.86999C66.6439 5.78041 66.3231 5.58519 66.08 5.30999C65.8475 5.02981 65.7265 4.67379 65.74 4.30999C65.7345 4.0691 65.786 3.83033 65.8903 3.61312C65.9945 3.3959 66.1486 3.20638 66.34 3.05999C66.7703 2.73295 67.2998 2.56351 67.84 2.57999C68.3924 2.54277 68.9376 2.72211 69.36 3.07999C69.5413 3.24533 69.6844 3.44816 69.7793 3.67438C69.8743 3.9006 69.9189 4.14479 69.91 4.38999H68.42C68.4187 4.31689 68.4029 4.24478 68.3734 4.17788C68.3439 4.11098 68.3014 4.05062 68.2483 4.00034C68.1953 3.95007 68.1327 3.91087 68.0643 3.88505C67.9959 3.85924 67.923 3.84732 67.85 3.84999C67.7131 3.84385 67.5785 3.88636 67.47 3.96999C67.4209 3.99831 67.3803 4.03916 67.3521 4.08836C67.324 4.13755 67.3095 4.19333 67.31 4.24999C67.3069 4.3098 67.3202 4.36933 67.3484 4.42218C67.3766 4.47503 67.4186 4.51921 67.47 4.54999C67.6217 4.6535 67.7912 4.72809 67.97 4.76999L68.79 4.99999C69.1526 5.08186 69.481 5.27399 69.73 5.54999C69.9661 5.82871 70.0907 6.18488 70.08 6.54999C70.089 6.82047 70.0402 7.08975 69.9367 7.33982C69.8332 7.58989 69.6775 7.81497 69.48 7.99999C69.2666 8.19297 69.0171 8.34181 68.746 8.43792C68.4748 8.53403 68.1873 8.57552 67.9 8.55999Z" fill="white"/>
<path d="M75.29 8.15999C74.794 8.42268 74.2413 8.56001 73.68 8.56001C73.1187 8.56001 72.566 8.42268 72.07 8.15999C71.6179 7.90455 71.247 7.52675 71 7.06999C70.7478 6.61087 70.6203 6.09372 70.63 5.56999C70.6185 5.04289 70.7461 4.52207 71 4.05999C71.2532 3.61556 71.6232 3.24897 72.07 2.99999C72.566 2.73731 73.1187 2.59998 73.68 2.59998C74.2413 2.59998 74.794 2.73731 75.29 2.99999C75.7401 3.25358 76.1106 3.62757 76.36 4.07999C76.6152 4.54197 76.7461 5.06226 76.74 5.58999C76.7467 6.11462 76.6157 6.63182 76.36 7.08999C76.1113 7.54036 75.7404 7.91127 75.29 8.15999ZM72.64 6.64999C72.9218 6.91435 73.2936 7.06148 73.68 7.06148C74.0664 7.06148 74.4382 6.91435 74.72 6.64999C74.8592 6.50803 74.9675 6.33878 75.0381 6.15291C75.1086 5.96703 75.1399 5.76856 75.13 5.56999C75.1401 5.3699 75.1089 5.16987 75.0384 4.98234C74.9679 4.79482 74.8595 4.62382 74.72 4.47999C74.4382 4.21564 74.0664 4.0685 73.68 4.0685C73.2936 4.0685 72.9218 4.21564 72.64 4.47999C72.5005 4.62382 72.3922 4.79482 72.3216 4.98234C72.2511 5.16987 72.2199 5.3699 72.23 5.56999C72.2201 5.76856 72.2514 5.96703 72.322 6.15291C72.3925 6.33878 72.5008 6.50803 72.64 6.64999Z" fill="white"/>
<path d="M80.25 2.73999H81V4.25999H80.1C79.9753 4.24357 79.8485 4.25606 79.7294 4.29649C79.6103 4.33692 79.5021 4.40421 79.4132 4.49315C79.3242 4.58208 79.2569 4.69029 79.2165 4.80938C79.1761 4.92848 79.1636 5.05529 79.18 5.17999V8.39999H77.58V2.73999H79.07V3.73999C79.114 3.44999 79.2636 3.18646 79.49 2.99999C79.7038 2.82479 79.9737 2.73249 80.25 2.73999Z" fill="white"/>
<path d="M35.39 79.89H31.68V79L33.56 77.1C33.7413 76.9253 33.9023 76.7307 34.04 76.52C34.1407 76.3511 34.1894 76.1564 34.18 75.96C34.1836 75.8697 34.1686 75.7796 34.1359 75.6953C34.1032 75.611 34.0535 75.5343 33.99 75.47C33.9264 75.4054 33.8499 75.3551 33.7654 75.3224C33.6809 75.2896 33.5905 75.2752 33.5 75.28C33.4049 75.274 33.3096 75.2879 33.2201 75.3206C33.1306 75.3533 33.0489 75.4041 32.98 75.47C32.8471 75.6108 32.7721 75.7964 32.77 75.99H31.66C31.6494 75.7497 31.6893 75.5098 31.7771 75.2859C31.865 75.062 31.9988 74.859 32.17 74.69C32.351 74.5225 32.5637 74.3928 32.7955 74.3086C33.0274 74.2245 33.2737 74.1876 33.52 74.2C33.7612 74.184 34.0031 74.2164 34.2315 74.2954C34.46 74.3744 34.6703 74.4984 34.85 74.66C35.0106 74.8245 35.1353 75.0205 35.2162 75.2356C35.2972 75.4508 35.3325 75.6805 35.32 75.91C35.3218 76.2287 35.2499 76.5436 35.11 76.83C34.916 77.1673 34.6771 77.4768 34.4 77.75L33.4 78.75H35.4L35.39 79.89Z" fill="white"/>
<path d="M38.1 80C37.7897 80.0036 37.4824 79.9387 37.2 79.81C36.9233 79.685 36.6775 79.5006 36.48 79.27C36.2563 79.0033 36.0895 78.6936 35.99 78.36C35.7633 77.5421 35.7633 76.6779 35.99 75.86C36.0895 75.5264 36.2563 75.2167 36.48 74.95C36.6775 74.7194 36.9233 74.535 37.2 74.41C37.4853 74.2847 37.7934 74.22 38.105 74.22C38.4166 74.22 38.7247 74.2847 39.01 74.41C39.2867 74.535 39.5325 74.7194 39.73 74.95C39.9506 75.2173 40.114 75.527 40.21 75.86C40.45 76.6761 40.45 77.5439 40.21 78.36C40.114 78.693 39.9506 79.0027 39.73 79.27C39.5325 79.5006 39.2867 79.685 39.01 79.81C38.7245 79.9399 38.4137 80.0048 38.1 80ZM37.3 78.43C37.3796 78.5738 37.4962 78.6937 37.6377 78.7771C37.7793 78.8606 37.9407 78.9046 38.105 78.9046C38.2693 78.9046 38.4307 78.8606 38.5722 78.7771C38.7138 78.6937 38.8304 78.5738 38.91 78.43C39.1339 78.0273 39.2413 77.5703 39.22 77.11C39.244 76.6495 39.1365 76.1917 38.91 75.79C38.8304 75.6462 38.7138 75.5263 38.5722 75.4429C38.4307 75.3594 38.2693 75.3154 38.105 75.3154C37.9407 75.3154 37.7793 75.3594 37.6377 75.4429C37.4962 75.5263 37.3796 75.6462 37.3 75.79C37.077 76.1927 36.973 76.6505 37 77.11C36.9757 77.5693 37.0795 78.0263 37.3 78.43Z" fill="white"/>
<path d="M44.45 79.89H40.74V79L42.61 77.1C42.7939 76.925 42.9582 76.7305 43.1 76.52C43.1952 76.3489 43.2435 76.1558 43.24 75.96C43.2436 75.8697 43.2286 75.7796 43.1959 75.6953C43.1632 75.611 43.1135 75.5343 43.05 75.47C42.9845 75.4052 42.9062 75.3548 42.8201 75.3221C42.734 75.2894 42.642 75.275 42.55 75.28C42.4564 75.2742 42.3627 75.2882 42.2748 75.3209C42.187 75.3536 42.107 75.4044 42.04 75.47C41.9071 75.6108 41.8321 75.7964 41.83 75.99H40.72C40.7094 75.7497 40.7493 75.5098 40.8371 75.2859C40.925 75.062 41.0588 74.859 41.23 74.69C41.4085 74.5218 41.6193 74.3916 41.8497 74.3074C42.08 74.2232 42.3251 74.1866 42.57 74.2C42.8127 74.1838 43.0562 74.2161 43.2863 74.2951C43.5164 74.3741 43.7284 74.4981 43.91 74.66C44.0687 74.8258 44.1921 75.0221 44.2729 75.2369C44.3537 75.4518 44.3901 75.6807 44.38 75.91C44.3813 76.2299 44.3058 76.5453 44.16 76.83C43.9694 77.1696 43.7302 77.4795 43.45 77.75L42.45 78.75H44.45V79.89Z" fill="white"/>
<path d="M46.84 80C46.4644 80.012 46.0921 79.9259 45.76 79.75C45.4708 79.5959 45.2341 79.3591 45.08 79.07C44.9294 78.7763 44.8538 78.45 44.86 78.12H46C46.0061 78.3303 46.0919 78.5305 46.24 78.68C46.3165 78.7544 46.4074 78.8123 46.5072 78.8501C46.607 78.888 46.7134 78.9049 46.82 78.9C47.0298 78.9079 47.2355 78.8405 47.4 78.71C47.4731 78.649 47.5317 78.5725 47.5715 78.486C47.6113 78.3995 47.6313 78.3052 47.63 78.21C47.6363 78.1059 47.6178 78.0017 47.5761 77.9061C47.5344 77.8105 47.4706 77.7262 47.39 77.66C47.2087 77.5238 46.9866 77.4533 46.76 77.46H46.45V76.55H46.76C46.9574 76.5582 47.1516 76.4982 47.31 76.38C47.3756 76.3232 47.4277 76.2523 47.4623 76.1727C47.4969 76.0931 47.5132 76.0067 47.51 75.92C47.5155 75.8315 47.5003 75.7429 47.4656 75.6613C47.4309 75.5797 47.3776 75.5074 47.31 75.45C47.1586 75.3333 46.9711 75.2731 46.78 75.28C46.5937 75.2754 46.4122 75.3395 46.27 75.46C46.2002 75.5173 46.1436 75.5889 46.1039 75.67C46.0642 75.7511 46.0424 75.8397 46.04 75.93H44.94C44.9378 75.7067 44.982 75.4853 45.07 75.28C45.1591 75.0788 45.2845 74.8957 45.44 74.74C45.6129 74.5749 45.8169 74.4458 46.04 74.36C46.2894 74.2667 46.5537 74.2193 46.82 74.22C47.3108 74.1913 47.7949 74.3444 48.18 74.65C48.3407 74.7884 48.4688 74.9605 48.5552 75.1541C48.6416 75.3477 48.6843 75.558 48.68 75.77C48.6861 76.0182 48.6164 76.2625 48.48 76.47C48.3664 76.6837 48.2015 76.8658 48 77C48.2527 77.0945 48.4718 77.2615 48.63 77.48C48.7917 77.7183 48.8724 78.0023 48.86 78.29C48.87 78.5294 48.8257 78.7681 48.7304 78.988C48.6352 79.2079 48.4915 79.4034 48.31 79.56C47.894 79.8886 47.3682 80.046 46.84 80Z" fill="white"/>
<path d="M53.05 77.67H50.88V76.79H53.05V77.67Z" fill="white"/>
<path d="M58.78 79.89H55.07V79L56.94 77.1C57.1239 76.925 57.2882 76.7305 57.43 76.52C57.5252 76.3489 57.5735 76.1557 57.57 75.96C57.5736 75.8697 57.5586 75.7796 57.5259 75.6953C57.4932 75.611 57.4435 75.5343 57.38 75.47C57.3164 75.4054 57.2399 75.3551 57.1554 75.3224C57.0709 75.2896 56.9805 75.2752 56.89 75.28C56.7949 75.274 56.6996 75.2879 56.6101 75.3206C56.5206 75.3533 56.4389 75.4041 56.37 75.47C56.2371 75.6108 56.1621 75.7964 56.16 75.99H55.05C55.0394 75.7497 55.0793 75.5098 55.1671 75.2859C55.255 75.062 55.3888 74.859 55.56 74.69C55.7407 74.522 55.9533 74.392 56.1852 74.3078C56.4171 74.2237 56.6636 74.187 56.91 74.2C57.1512 74.184 57.3931 74.2164 57.6215 74.2954C57.85 74.3744 58.0603 74.4984 58.24 74.66C58.3987 74.8258 58.5221 75.0221 58.6029 75.2369C58.6837 75.4517 58.7201 75.6807 58.71 75.91C58.7113 76.2298 58.6358 76.5453 58.49 76.83C58.3033 77.1695 58.0674 77.4795 57.79 77.75L56.79 78.75H58.79L58.78 79.89Z" fill="white"/>
<path d="M61.49 80C61.1797 80.0036 60.8724 79.9387 60.59 79.81C60.3121 79.687 60.0659 79.5024 59.87 79.27C59.6463 79.0033 59.4795 78.6936 59.38 78.36C59.1533 77.5421 59.1533 76.6779 59.38 75.86C59.4795 75.5264 59.6463 75.2167 59.87 74.95C60.0633 74.7149 60.3102 74.5297 60.59 74.41C60.8724 74.2812 61.1797 74.2164 61.49 74.22C61.8007 74.2125 62.1088 74.2776 62.39 74.41C62.6715 74.5316 62.9213 74.7164 63.12 74.95C63.3368 75.2198 63.4998 75.5287 63.6 75.86C63.84 76.676 63.84 77.5439 63.6 78.36C63.4998 78.6913 63.3368 79.0002 63.12 79.27C62.9213 79.5036 62.6715 79.6883 62.39 79.81C62.1088 79.9424 61.8007 80.0074 61.49 80ZM60.69 78.43C60.7697 78.5722 60.8858 78.6907 61.0264 78.7732C61.167 78.8558 61.327 78.8996 61.49 78.9C61.6531 78.8937 61.8122 78.8476 61.9534 78.7657C62.0946 78.6837 62.2136 78.5685 62.3 78.43C62.5205 78.0263 62.6243 77.5693 62.6 77.11C62.627 76.6505 62.523 76.1927 62.3 75.79C62.2191 75.6458 62.1016 75.5255 61.9594 75.4413C61.8172 75.357 61.6553 75.3117 61.49 75.31C61.3257 75.3104 61.1647 75.3552 61.0238 75.4397C60.883 75.5242 60.7676 75.6452 60.69 75.79C60.4587 76.1898 60.3508 76.649 60.38 77.11C60.3537 77.5707 60.4614 78.0291 60.69 78.43Z" fill="white"/>
<path d="M67.83 79.89H64.12V79L66 77.12C66.1842 76.948 66.3455 76.7531 66.48 76.54C66.5842 76.3722 66.6364 76.1774 66.63 75.98C66.6327 75.7982 66.5646 75.6224 66.44 75.49C66.3745 75.4252 66.2962 75.3748 66.2101 75.3421C66.124 75.3094 66.032 75.295 65.94 75.3C65.8449 75.294 65.7496 75.3079 65.6601 75.3406C65.5706 75.3733 65.4889 75.4241 65.42 75.49C65.2952 75.6358 65.2214 75.8184 65.21 76.01H64.11C64.1005 75.7707 64.14 75.532 64.2259 75.3084C64.3119 75.0849 64.4426 74.8813 64.61 74.71C64.7957 74.5374 65.015 74.4049 65.2541 74.3206C65.4932 74.2363 65.7471 74.2021 66 74.22C66.2427 74.2038 66.4862 74.2361 66.7163 74.3151C66.9464 74.394 67.1584 74.5181 67.34 74.68C67.4987 74.8458 67.6221 75.0421 67.7029 75.2569C67.7837 75.4717 67.8201 75.7007 67.81 75.93C67.8083 76.2495 67.733 76.5643 67.59 76.85C67.3994 77.1896 67.1602 77.4995 66.88 77.77L65.88 78.77H67.88L67.83 79.89Z" fill="white"/>
<path d="M71.59 79.89H70.41V78.54H68V77.84L70.32 74.33H71.57V77.65H72.19V78.54H71.57L71.59 79.89ZM70.44 75.89L69.28 77.68H70.41V76.39C70.41 76.26 70.42 76.09 70.44 75.86V75.89Z" fill="white"/>
</g>
<defs>
<clipPath id="clip0_3_80">
<rect width="104.18" height="80" fill="white"/>
</clipPath>
</defs>
</svg>
